<svg width="225" height="40" viewBox="0 0 225 40" fill="none" xmlns="http://www.w3.org/2000/svg">
<path d="M26.8502 0L17.7663 15.011H0L11.5365 31.7583L0.983942 39.1176H17.4716L24.646 34.0538L32.1152 40H48.498L34.228 28.537L48.3343 0H26.8502ZM103.543 39.1176H92.2045L84.896 17.5878L77.5878 39.1176H66.2163L53.7631 8.24341H65.8559L73.229 30.1492L80.4033 11.2215L74.835 8.24341H86.4024L92.2045 25.334L98.0392 8.24341H115.933L103.543 39.1176ZM130.312 8.24341H118.941V39.1176H130.312V8.24341ZM130.312 0H118.941V5.53833H130.312V0ZM174.524 15.1417C171.869 11.7011 168.393 10.3248 164.295 10.3248C159.215 10.3248 154.59 12.5532 151.77 17.1404C150.395 19.3364 149.576 21.9255 149.576 24.6784C149.576 30.4137 153.38 35.1983 158.756 36.6397C158.919 36.6716 159.083 36.7049 159.247 36.7374C160.819 37.0652 162.524 37.2625 164.295 37.2625C168.163 37.2625 171.705 35.8532 174.459 32.5103L181.701 39.1465C177.309 44.5866 170.949 47.2604 164.295 47.2604C152.007 47.2604 141.258 39.5262 138.601 27.9252L138.406 24.6784C138.406 13.9113 147.221 5.16309 158.07 5.16309C168.919 5.16309 177.081 11.4396 181.635 20.3541L174.524 15.1417ZM207.29 5.16309C196.442 5.16309 187.625 13.9113 187.625 24.6784C187.625 35.4455 196.442 44.1937 207.29 44.1937C215.352 44.1937 222.072 39.3082 225 32.2477L217.525 28.5775C215.753 32.1812 212.181 34.3461 207.978 34.3461C203.161 34.3461 199.195 31.0691 198.31 26.6111H225V24.6784C225 13.9113 216.139 5.16309 207.29 5.16309ZM198.31 21.0734C199.227 16.5173 203.259 13.1415 207.978 13.1415C212.697 13.1415 216.73 16.5173 217.647 21.0734H198.31Z" fill="#9FE870"/>
</svg>